<svg class="svg-standalone-icon" width="100%" xmlns="http://www.w3.org/2000/svg" fill="white"
    viewBox="224.65504979753 204.56452625059407 61.59605912337554 60.87094749881183">
    <g
        data-paper-data="{&quot;isIcon&quot;:&quot;true&quot;,&quot;iconType&quot;:&quot;icon&quot;,&quot;rawIconId&quot;:&quot;jvljoDd0wZWtGwxZDKvSJV6XjUqD3BLfMC2xzw2CFB&quot;,&quot;source&quot;:&quot;ai&quot;,&quot;selectedEffects&quot;:{&quot;container&quot;:&quot;enclosed_circle_outline2&quot;,&quot;transformation&quot;:&quot;&quot;,&quot;pattern&quot;:&quot;&quot;},&quot;isDetailed&quot;:false,&quot;fillRule&quot;:&quot;evenodd&quot;,&quot;blockLetter&quot;:&quot;O&quot;,&quot;blockLetterId&quot;:0,&quot;relativeBoundsIconToContainer&quot;:{&quot;top&quot;:0.05398299270712662,&quot;left&quot;:0.022738947220779987},&quot;widthRatioIconToContainer&quot;:0.9545221055584399,&quot;heightRatioIconToContainer&quot;:0.8616950164327071,&quot;bounds&quot;:{&quot;x&quot;:224.65504979753,&quot;y&quot;:204.56452625059407,&quot;width&quot;:61.59605912337554,&quot;height&quot;:60.87094749881183},&quot;iconStyle&quot;:&quot;icon-in-text&quot;,&quot;suitableAsStandaloneIcon&quot;:true}"
        fill-rule="evenodd">
        <path
            d="M227.59336,217.84417c0.37138,-2.65366 2.32527,-4.87034 4.88206,-5.53871c0.82651,-0.21605 2.29303,-0.23782 16.49657,-0.24508c10.91138,-0.00572 15.81122,0.03838 16.32889,0.14682c2.53128,0.53006 4.98791,3.1011 5.23308,5.47703l0.07889,0.7641l2.17977,0.04676c2.07217,0.04452 2.21147,0.06546 2.81767,0.4219c0.35082,0.20628 0.82186,0.64017 1.04671,0.96439c0.37987,0.54764 0.41225,0.696 0.45589,2.08898l0.04685,1.4996l0.46806,0.0878c0.6147,0.11529 0.86894,0.04605 3.37611,-0.91876c2.66586,-1.02607 3.56639,-1.06919 4.48402,-0.21479c0.13688,0.12742 0.24942,0.22944 0.34186,0.34737c0.43476,0.55365 0.42672,1.45519 0.41937,6.97284l-0.00804,6.17828l-0.36529,0.55177c-0.60357,0.91235 -1.58241,1.2541 -2.77989,0.97092c-0.39962,-0.09451 -1.60583,-0.50378 -2.68045,-0.90948c-1.07473,-0.40571 -2.14234,-0.74895 -2.37258,-0.76261c-0.46795,-0.02779 -0.69451,-0.04169 -0.80418,0.06477c-0.10358,0.10036 -0.10301,0.30798 -0.10301,0.71208c0,1.29693 -0.59495,2.29886 -1.70413,2.86935c-0.44797,0.23047 -0.82853,0.2663 -2.82181,0.2663h-2.30414l-0.46864,0.73275c-1.02914,1.60848 -2.59651,2.72259 -4.26917,3.03482c-0.47553,0.08865 -6.50613,0.14021 -16.40422,0.14021c-14.90935,0 -16.32564,0.02216 -17.46811,-0.52628c-0.16789,-0.0805 -0.33007,-0.17363 -0.52824,-0.28077c-1.10939,-0.60012 -2.21989,-1.71883 -2.79783,-2.81859c-0.90577,-1.724 -0.91358,-1.82528 -0.91316,-12.0054c0.00028,-5.20729 0.05918,-9.56196 0.13705,-10.1184zM230.44353,216.0501c-0.1404,0.18394 -0.25903,0.33537 -0.35937,0.49795c-0.56077,0.90995 -0.54457,2.17552 -0.50829,11.4925l0.03852,9.90693l0.45944,0.93314c0.52434,1.06474 1.26333,1.77958 2.40161,2.32297l0.7676,0.36643h32.09965l0.68521,-0.34898c0.90822,-0.46244 1.78945,-1.33667 2.19516,-2.17782l0.32957,-0.68326v-20.79491l-0.47564,-0.87716c-0.53892,-0.99369 -1.09425,-1.53422 -2.14636,-2.08885l-0.72759,-0.38351l-15.84039,-0.02666c-12.32602,-0.02079 -15.98356,0.01214 -16.48514,0.14822c-0.79566,0.21591 -1.86708,0.96983 -2.43399,1.71301zM235.3965,219.92047c0.55239,-0.74527 1.76659,-1.67756 2.61765,-2.01014c0.41088,-0.16049 1.03726,-0.26502 1.61234,-0.26894c1.55841,-0.01089 2.86189,0.64004 3.97187,1.9832c1.6783,2.03093 2.38682,5.19648 1.73766,7.76312c-1.35573,5.36112 -6.32251,6.6514 -8.41242,2.1854c-1.32307,-2.82743 -0.87312,-6.45078 1.03821,-8.35959c0.85105,-0.84994 1.51723,-1.13632 2.64317,-1.13632c0.51813,0 0.9421,-0.01884 0.9421,-0.04173c0,-0.1284 -1.25203,-0.58059 -1.61445,-0.58324c-0.90799,-0.00656 -1.88471,0.41241 -2.57806,1.10577c-1.1828,1.18266 -1.77162,2.718 -1.90421,4.96471c-0.19609,3.32351 1.24127,6.61878 3.34436,7.66675c0.88263,0.43981 1.99285,0.47254 2.84859,0.08406c1.35033,-0.6131 3.08213,-2.75624 3.67238,-4.54454c0.30075,-0.91155 0.46026,-0.56418 0.38676,0.84254c-0.06167,1.17946 -0.12861,1.44932 -0.59128,2.38544c-0.66638,1.34826 -1.88224,2.5748 -3.14541,3.17332c-0.76204,0.36104 -1.06864,0.42844 -1.91634,0.42179c-2.13506,-0.01688 -4.17632,-1.58367 -5.39289,-4.13906c-0.96481,-2.02647 -1.12949,-2.77817 -1.1228,-5.12525c0.00419,-1.48032 0.07173,-2.26716 0.2515,-2.93079c0.29476,-1.08845 1.02481,-2.64542 1.61127,-3.43647zM272.60626,237.73193c1.82115,0 1.90302,-0.01251 2.23294,-0.34255l0.34267,-0.34255v-7.87288c0,-7.75345 -0.00436,-7.87837 -0.28926,-8.24053c-0.28766,-0.3658 -0.29937,-0.36776 -2.23306,-0.36776h-1.94367v17.16627zM238.29286,224.05754c-0.8325,2.57733 0.5429,5.90991 2.42846,5.88385c1.05073,-0.01435 2.12603,-1.1078 2.58318,-2.62647c0.24643,-0.81865 0.24483,-2.88095 -0.00276,-3.57443c-0.21853,-0.61271 -0.80705,-1.42148 -1.24066,-1.70521c-0.4111,-0.26908 -1.32265,-0.36998 -1.8626,-0.20614c-0.62802,0.19051 -1.62343,1.35433 -1.90562,2.2284zM277.20558,225.6597l-0.07407,8.12988l1.02248,0.15215c0.56246,0.0836 1.92783,0.47116 3.03414,0.86125c1.30899,0.4614 2.18345,0.69463 2.5036,0.66764c0.4676,-0.03939 0.49677,-0.07269 0.58634,-0.66948c0.0519,-0.34542 0.09899,-2.86878 0.10461,-5.60756c0.00884,-4.22806 0.01275,-5.16246 -0.36747,-5.36078c-0.10967,-0.0573 -0.2516,-0.05317 -0.43453,-0.04926c-0.20578,0.00448 -1.2851,0.37999 -2.39876,0.83438c-1.43944,0.58737 -2.30689,0.85746 -3.00061,0.93406zM240.17391,246.66404c0.06431,0 0.11713,-0.25642 0.11713,-0.5698c0,-0.6658 0.27526,-0.69302 0.47438,-0.04674c0.0689,0.22393 0.21968,0.62504 0.33485,0.89134c0.22163,0.51181 0.19728,2.37752 -0.11162,8.51767c-0.07143,1.42003 -0.13206,3.63403 -0.1347,4.91959c-0.00413,2.07768 0.02078,2.33778 0.22473,2.33778c0.98217,0 10.52129,-6.85545 13.83286,-9.94115c0.85597,-0.79764 1.39753,-0.87159 1.62455,-0.22232c0.17523,0.50125 -0.22668,0.95002 -2.85247,3.18526c-3.63518,3.09465 -6.91735,5.49249 -10.13132,7.40206c-2.36752,1.40648 -3.48738,1.6923 -4.0952,1.0451c-0.31935,-0.33979 -0.32417,-0.39055 -0.30649,-3.24486c0.02021,-3.25358 0.23736,-8.93211 0.44831,-11.72681c0.13229,-1.75144 0.31189,-2.54713 0.57497,-2.54713zM257.31444,252.04021c-0.32062,0.29007 -0.6224,0.12574 -0.47484,-0.25884c0.08969,-0.23391 0.75721,-0.33508 0.75721,-0.11472c0,0.06488 -0.12712,0.233 -0.28238,0.37355zM243.24348,206.95657c3.77026,-1.59469 7.7193,-2.39204 11.8471,-2.39204c4.12773,0 8.07674,0.79735 11.84705,2.39204c3.6413,1.54015 6.86595,3.71425 9.67397,6.52232c1.85898,1.85891 3.44011,3.9004 4.74338,6.12448l-2.00959,-0.83475c-1.05192,-1.56895 -2.25989,-3.03544 -3.62391,-4.39948c-2.69225,-2.69228 -5.78373,-4.77662 -9.27444,-6.25301c-3.61347,-1.52839 -7.39896,-2.29258 -11.35646,-2.29258c-3.95762,0 -7.74317,0.76419 -11.35666,2.29258c-1.47354,0.62326 -2.87596,1.35486 -4.20724,2.1948l-0.01518,0.00006l-0.58941,0.00253l-0.58979,0.00302l-0.59028,0.00364l-0.47982,0.0036c1.85023,-1.34081 3.84398,-2.46322 5.98128,-3.36721zM283.13398,246.84709c-1.54009,3.6413 -3.71421,6.86603 -6.52237,9.67419c-2.80801,2.80801 -6.03267,4.98207 -9.67397,6.52215c-3.77031,1.59469 -7.71933,2.39204 -11.84705,2.39204c-3.26665,0 -6.42131,-0.49935 -9.46398,-1.49805l0.0587,-0.03646l0.51099,-0.32498l0.50736,-0.32944l0.30281,-0.20087c2.60984,0.75397 5.30455,1.13095 8.08411,1.13095c3.9575,0 7.74299,-0.76424 11.35646,-2.29272c3.49056,-1.4764 6.58204,-3.56072 9.27444,-6.25297c2.69225,-2.69225 4.77657,-5.78366 6.25297,-9.27422c0.96629,-2.28472 1.62711,-4.63818 1.98246,-7.06037l0.13705,-0.00171l0.583,-0.06651l0.42185,-0.10178l0.1618,-0.06102c-0.35425,2.6734 -1.06313,5.26732 -2.12664,7.78176zM233.56938,256.52128c-2.80804,-2.80816 -4.98214,-6.03289 -6.52231,-9.67419c-1.59468,-3.77031 -2.39202,-7.71933 -2.39202,-11.84705c0,-2.71929 0.34604,-5.36101 1.03811,-7.92514l-0.0004,0.29888l-0.00028,0.58876l-0.00001,0.38853l0.00003,0.58825l0.00013,0.58845l0.00029,0.58871l0.00055,0.58903l0.00091,0.58945l0.00142,0.59003l0.00212,0.59079l0.00307,0.59182l0.00439,0.59329l0.00622,0.59534l0.00879,0.59851l0.01252,0.60309l0.0181,0.61112l0.02696,0.62407l0.03726,0.58679l0.00496,0.06116l0.05765,0.58501l0.01379,0.10669l0.09316,0.58032l0.03801,0.17767l0.15233,0.56738l0.07303,0.21561l0.02916,0.07069c0.36621,2.29976 1.00932,4.53722 1.9293,6.71238c1.47637,3.49042 3.56071,6.58182 6.25302,9.27422c0.94211,0.9421 1.9331,1.80976 2.97297,2.60297l-0.00779,0.31404l-0.01299,0.59372l-0.01098,0.59505l-0.00056,0.03908c-1.35315,-0.96891 -2.63012,-2.05375 -3.83091,-3.25451z"
            data-paper-data="{&quot;isPathIcon&quot;:true}" style="fill: rgb(255, 255, 255);"></path>
    </g>
</svg>